# xmcd
#
# Track frame offsets:
#  150
#  10008
#  21338
#  39640
#  49888
#  66320
#  78823
#  92765
#  103543
#  119588
#  129610
#  143485
#  154570
#  172725
#  189323
#
# Disc length: 2692 seconds
#
# Revision: 0
# Processed by: cddbd v1.5.1PL2 Copyright (c) Steve Scherf et al.
# Submitted via: Collectorz.com_Music_Collector 6.10
#
DISCID=b90a820f
DTITLE=Homefire - Homefire
DYEAR=1900
DGENRE=
TTITLE0=That's How I Count On You
TTITLE1=Banjo Signal
TTITLE2=Brand New Tennessee Waltz
TTITLE3=Big Mon
TTITLE4=Once More
TTITLE5=Rocky Top
TTITLE6=Tall Pines
TTITLE7=Road To Columbus
TTITLE8=Eight More Miles
TTITLE9=Shenandoah Valley Breakdown
TTITLE10=Rose Of My Heart
TTITLE11=Wheel Hoss
TTITLE12=Fare Thee Well
TTITLE13=Gold Rush
TTITLE14=Life Boat
EXTD=
EXTT0=
EXTT1=
EXTT2=
EXTT3=
EXTT4=
EXTT5=
EXTT6=
EXTT7=
EXTT8=
EXTT9=
EXTT10=
EXTT11=
EXTT12=
EXTT13=
EXTT14=
PLAYORDER=
